<svg width="54" height="100" viewBox="0 0 54 100" fill="none" xmlns="http://www.w3.org/2000/svg">
<mask id="path-1-outside-1_211_69" maskUnits="userSpaceOnUse" x="-0.166626" y="66.7853" width="14" height="14" fill="black">
<rect fill="white" x="-0.166626" y="66.7853" width="14" height="14"/>
<path d="M0.833374 67.7853H13.8334V79.7853H0.833374V67.7853Z"/>
</mask>
<path d="M0.833374 67.7853H13.8334V79.7853H0.833374V67.7853Z" fill="#C80202"/>
<path d="M0.833374 67.7853V67.2853H0.333374V67.7853H0.833374ZM0.833374 79.7853H0.333374V80.2853H0.833374V79.7853ZM0.833374 68.2853H13.8334V67.2853H0.833374V68.2853ZM13.8334 79.2853H0.833374V80.2853H13.8334V79.2853ZM1.33337 79.7853V67.7853H0.333374V79.7853H1.33337Z" fill="black" mask="url(#path-1-outside-1_211_69)"/>
<mask id="path-3-outside-2_211_69" maskUnits="userSpaceOnUse" x="12.8334" y="58.7853" width="14" height="22" fill="black">
<rect fill="white" x="12.8334" y="58.7853" width="14" height="22"/>
<path d="M13.8334 59.7853H26.8334V79.7853H13.8334V59.7853Z"/>
</mask>
<path d="M13.8334 59.7853H26.8334V79.7853H13.8334V59.7853Z" fill="#C86102"/>
<path d="M13.8334 59.7853V59.2853H13.3334V59.7853H13.8334ZM13.8334 79.7853H13.3334V80.2853H13.8334V79.7853ZM13.8334 60.2853H26.8334V59.2853H13.8334V60.2853ZM26.8334 79.2853H13.8334V80.2853H26.8334V79.2853ZM14.3334 79.7853V59.7853H13.3334V79.7853H14.3334Z" fill="black" mask="url(#path-3-outside-2_211_69)"/>
<mask id="path-5-outside-3_211_69" maskUnits="userSpaceOnUse" x="25.8334" y="44.7853" width="14" height="36" fill="black">
<rect fill="white" x="25.8334" y="44.7853" width="14" height="36"/>
<path d="M26.8334 45.7853H39.8334V79.7853H26.8334V45.7853Z"/>
</mask>
<path d="M26.8334 45.7853H39.8334V79.7853H26.8334V45.7853Z" fill="#FFF500"/>
<path d="M26.8334 45.7853V45.2853H26.3334V45.7853H26.8334ZM26.8334 79.7853H26.3334V80.2853H26.8334V79.7853ZM26.8334 46.2853H39.8334V45.2853H26.8334V46.2853ZM39.8334 79.2853H26.8334V80.2853H39.8334V79.2853ZM27.3334 79.7853V45.7853H26.3334V79.7853H27.3334Z" fill="black" mask="url(#path-5-outside-3_211_69)"/>
<rect x="39.5834" y="20.5353" width="13.5" height="59.5" fill="#02C821" stroke="black" stroke-width="0.5" stroke-miterlimit="16"/>
</svg>
