<svg xmlns="http://www.w3.org/2000/svg" height="48" viewBox="0 -960 960 960" width="48"><path d="M615.132-155q-136.038 0-230.585-94.421T290-479.89Q290-615 384.421-710t230.469-95Q750-805 845-710.117q95 94.884 95 229.985 0 136.038-94.883 230.585Q750.233-155 615.132-155Zm-.367-73q105.294 0 178.764-73.235Q867-374.471 867-479.765t-73.235-178.764Q720.529-732 615.235-732t-178.764 73.235Q363-585.529 363-480.235t73.235 178.764Q509.471-228 614.765-228ZM712-333l51-51-110-112-1-146h-73v177l133 132ZM60-604v-73h190v73H60ZM20-444v-73h230v73H20Zm40 160v-73h190v73H60Zm555-196Z"/></svg>