<svg width="59" height="54" viewBox="0 0 59 54" fill="none" xmlns="http://www.w3.org/2000/svg">
<rect x="29.5" y="0.785339" width="12" height="18" rx="6" fill="black"/>
<path d="M56.75 30.7141C56.75 42.0363 47.5718 51.2146 36.25 51.2146C24.9282 51.2146 15.75 42.0363 15.75 30.7141C15.75 19.3919 24.9282 10.2135 36.25 10.2135C47.5718 10.2135 56.75 19.3919 56.75 30.7141Z" fill="#1E1E1E" stroke="black" stroke-width="4"/>
<g style="mix-blend-mode:luminosity">
<rect x="12.25" y="18.7138" width="12" height="25.5006" fill="#1E1E1E"/>
</g>
<rect x="-1.06065" width="18.0002" height="4.50004" rx="2.25002" transform="matrix(0.707098 -0.707116 0.707098 0.707116 34.4393 29.6313)" fill="white" stroke="black" stroke-width="1.5"/>
<path d="M36.25 35.9642C39.1495 35.9642 41.5 33.6136 41.5 30.7141C41.5 27.8145 39.1495 25.464 36.25 25.464C33.3505 25.464 31 27.8145 31 30.7141C31 33.6136 33.3505 35.9642 36.25 35.9642Z" fill="white" stroke="black" stroke-width="1.5"/>
<rect width="16.5002" height="3.00004" rx="1.50002" transform="matrix(0.707098 -0.707116 0.707098 0.707116 34.75 30.3813)" fill="white"/>
<g style="mix-blend-mode:multiply">
<rect x="9.25" y="23.2139" width="15" height="3.00008" rx="1.50004" fill="black"/>
</g>
<g style="mix-blend-mode:multiply">
<rect x="0.25" y="29.2141" width="21" height="3.00008" rx="1.50004" fill="black"/>
</g>
<g style="mix-blend-mode:multiply">
<path d="M9.25 36.7142C9.25 35.8858 9.92159 35.2142 10.75 35.2142H22.75C23.5784 35.2142 24.25 35.8858 24.25 36.7142C24.25 37.5427 23.5784 38.2143 22.75 38.2143H10.75C9.92159 38.2143 9.25 37.5427 9.25 36.7142Z" fill="black"/>
</g>
</svg>
